HIERARCHY
ROOT hip
{
  OFFSET -0.913958 90.5221 0.36299
  CHANNELS 6 Xposition Yposition Zposition Zrotation Xrotation Yrotation
  JOINT abdomen
  {
    OFFSET 0 7.2397 0
    CHANNELS 6 Xposition Yposition Zposition Zrotation Xrotation Yrotation
    JOINT chest
    {
      OFFSET 0 16.546 0
      CHANNELS 6 Xposition Yposition Zposition Zrotation Xrotation Yrotation
      JOINT neck
      {
        OFFSET 0 34.2149 0
        CHANNELS 6 Xposition Yposition Zposition Zrotation Xrotation Yrotation
        JOINT head
        {
          OFFSET 0 6.2923 0
          CHANNELS 6 Xposition Yposition Zposition Zrotation Xrotation Yrotation
          End Site
          {
            OFFSET 0 21.2161 0
          }
        }
      }
      JOINT lCollar
      {
        OFFSET 4.0639 26.6115 -1.1234
        CHANNELS 6 Xposition Yposition Zposition Zrotation Xrotation Yrotation
        JOINT lShldr
        {
          OFFSET 14.1772 0 0
          CHANNELS 6 Xposition Yposition Zposition Zrotation Xrotation Yrotation
          JOINT lForeArm
          {
            OFFSET 26.1234 0 0
            CHANNELS 6 Xposition Yposition Zposition Zrotation Xrotation Yrotation
            JOINT lHand
            {
              OFFSET 27.7188 0 0
              CHANNELS 6 Xposition Yposition Zposition Zrotation Xrotation Yrotation
              JOINT lThumb1
              {
                OFFSET 2.2979 -0.4685 1.8313
                CHANNELS 6 Xposition Yposition Zposition Zrotation Xrotation Yrotation
                JOINT lThumb2
                {
                  OFFSET 5.2953 0 0
                  CHANNELS 6 Xposition Yposition Zposition Zrotation Xrotation Yrotation
                  JOINT lThumb3
                  {
                    OFFSET 3.0181 0 0
                    CHANNELS 6 Xposition Yposition Zposition Zrotation Xrotation Yrotation
                    End Site
                    {
                      OFFSET 2.6294 0 0
                    }
                  }
                }
              }
              JOINT lIndex1
              {
                OFFSET 9.3793 0.2991 2.5924
                CHANNELS 6 Xposition Yposition Zposition Zrotation Xrotation Yrotation
                JOINT lIndex2
                {
                  OFFSET 4.3461 0 0
                  CHANNELS 6 Xposition Yposition Zposition Zrotation Xrotation Yrotation
                  JOINT lIndex3
                  {
                    OFFSET 2.1666 0 0
                    CHANNELS 6 Xposition Yposition Zposition Zrotation Xrotation Yrotation
                    End Site
                    {
                      OFFSET 2.2048 0 0
                    }
                  }
                }
              }
              JOINT lMid1
              {
                OFFSET 9.4769 0.8376 0.2947
                CHANNELS 6 Xposition Yposition Zposition Zrotation Xrotation Yrotation
                JOINT lMid2
                {
                  OFFSET 4.772 0 0
                  CHANNELS 6 Xposition Yposition Zposition Zrotation Xrotation Yrotation
                  JOINT lMid3
                  {
                    OFFSET 2.8722 0 0
                    CHANNELS 6 Xposition Yposition Zposition Zrotation Xrotation Yrotation
                    End Site
                    {
                      OFFSET 2.0959 0 0
                    }
                  }
                }
              }
              JOINT lRing1
              {
                OFFSET 8.6586 1.0176 -1.7016
                CHANNELS 6 Xposition Yposition Zposition Zrotation Xrotation Yrotation
                JOINT lRing2
                {
                  OFFSET 4.5461 0 0
                  CHANNELS 6 Xposition Yposition Zposition Zrotation Xrotation Yrotation
                  JOINT lRing3
                  {
                    OFFSET 2.506 0 0
                    CHANNELS 6 Xposition Yposition Zposition Zrotation Xrotation Yrotation
                    End Site
                    {
                      OFFSET 2.2023 0 0
                    }
                  }
                }
              }
              JOINT lPinky1
              {
                OFFSET 7.6901 0.6618 -3.9096
                CHANNELS 6 Xposition Yposition Zposition Zrotation Xrotation Yrotation
                JOINT lPinky2
                {
                  OFFSET 3.2119 0 0
                  CHANNELS 6 Xposition Yposition Zposition Zrotation Xrotation Yrotation
                  JOINT lPinky3
                  {
                    OFFSET 1.924 0 0
                    CHANNELS 6 Xposition Yposition Zposition Zrotation Xrotation Yrotation
                    End Site
                    {
                      OFFSET 1.7829 0 0
                    }
                  }
                }
              }
            }
          }
        }
      }
      JOINT rCollar
      {
        OFFSET -4.0677 26.6109 -1.1234
        CHANNELS 6 Xposition Yposition Zposition Zrotation Xrotation Yrotation
        JOINT rShldr
        {
          OFFSET -14.1772 0 0
          CHANNELS 6 Xposition Yposition Zposition Zrotation Xrotation Yrotation
          JOINT rForeArm
          {
            OFFSET -26.1234 0 0
            CHANNELS 6 Xposition Yposition Zposition Zrotation Xrotation Yrotation
            JOINT rHand
            {
              OFFSET -27.7188 0 0
              CHANNELS 6 Xposition Yposition Zposition Zrotation Xrotation Yrotation
              JOINT rThumb1
              {
                OFFSET -2.2979 -0.4684 1.8313
                CHANNELS 6 Xposition Yposition Zposition Zrotation Xrotation Yrotation
                JOINT rThumb2
                {
                  OFFSET -5.2953 0 0
                  CHANNELS 6 Xposition Yposition Zposition Zrotation Xrotation Yrotation
                  JOINT rThumb3
                  {
                    OFFSET -3.0181 0 0
                    CHANNELS 6 Xposition Yposition Zposition Zrotation Xrotation Yrotation
                    End Site
                    {
                      OFFSET -2.6294 0 0
                    }
                  }
                }
              }
              JOINT rIndex1
              {
                OFFSET -9.3793 0.2991 2.5924
                CHANNELS 6 Xposition Yposition Zposition Zrotation Xrotation Yrotation
                JOINT rIndex2
                {
                  OFFSET -4.3461 0 0
                  CHANNELS 6 Xposition Yposition Zposition Zrotation Xrotation Yrotation
                  JOINT rIndex3
                  {
                    OFFSET -2.1666 0 0
                    CHANNELS 6 Xposition Yposition Zposition Zrotation Xrotation Yrotation
                    End Site
                    {
                      OFFSET -2.2048 0 0
                    }
                  }
                }
              }
              JOINT rMid1
              {
                OFFSET -9.4769 0.8376 0.2947
                CHANNELS 6 Xposition Yposition Zposition Zrotation Xrotation Yrotation
                JOINT rMid2
                {
                  OFFSET -4.772 0 0
                  CHANNELS 6 Xposition Yposition Zposition Zrotation Xrotation Yrotation
                  JOINT rMid3
                  {
                    OFFSET -2.8722 0 0
                    CHANNELS 6 Xposition Yposition Zposition Zrotation Xrotation Yrotation
                    End Site
                    {
                      OFFSET -2.0959 0 0
                    }
                  }
                }
              }
              JOINT rRing1
              {
                OFFSET -8.6586 1.0176 -1.7016
                CHANNELS 6 Xposition Yposition Zposition Zrotation Xrotation Yrotation
                JOINT rRing2
                {
                  OFFSET -4.5461 0 0
                  CHANNELS 6 Xposition Yposition Zposition Zrotation Xrotation Yrotation
                  JOINT rRing3
                  {
                    OFFSET -2.506 0 0
                    CHANNELS 6 Xposition Yposition Zposition Zrotation Xrotation Yrotation
                    End Site
                    {
                      OFFSET -2.2023 0 0
                    }
                  }
                }
              }
              JOINT rPinky1
              {
                OFFSET -7.6901 0.6618 -3.9096
                CHANNELS 6 Xposition Yposition Zposition Zrotation Xrotation Yrotation
                JOINT rPinky2
                {
                  OFFSET -3.2119 0 0
                  CHANNELS 6 Xposition Yposition Zposition Zrotation Xrotation Yrotation
                  JOINT rPinky3
                  {
                    OFFSET -1.924 0 0
                    CHANNELS 6 Xposition Yposition Zposition Zrotation Xrotation Yrotation
                    End Site
                    {
                      OFFSET -1.7829 0 0
                    }
                  }
                }
              }
            }
          }
        }
      }
    }
  }
  JOINT lThigh
  {
    OFFSET 8.7379 -0.0029 0.0005
    CHANNELS 6 Xposition Yposition Zposition Zrotation Xrotation Yrotation
    JOINT lShin
    {
      OFFSET 0 -46.6676 0
      CHANNELS 6 Xposition Yposition Zposition Zrotation Xrotation Yrotation
      JOINT lFoot
      {
        OFFSET 0 -40.1476 0
        CHANNELS 6 Xposition Yposition Zposition Zrotation Xrotation Yrotation
        JOINT lToes
        {
          OFFSET 0 -8.8846 14.2294
          CHANNELS 6 Xposition Yposition Zposition Zrotation Xrotation Yrotation
          End Site
          {
            OFFSET 0 0 6.296
          }
        }
      }
    }
  }
  JOINT rThigh
  {
    OFFSET -8.7379 0.0029 -0.0005
    CHANNELS 6 Xposition Yposition Zposition Zrotation Xrotation Yrotation
    JOINT rShin
    {
      OFFSET 0 -46.6676 0
      CHANNELS 6 Xposition Yposition Zposition Zrotation Xrotation Yrotation
      JOINT rFoot
      {
        OFFSET 0 -40.1476 0
        CHANNELS 6 Xposition Yposition Zposition Zrotation Xrotation Yrotation
        JOINT rToes
        {
          OFFSET 0 -8.8846 14.2294
          CHANNELS 6 Xposition Yposition Zposition Zrotation Xrotation Yrotation
          End Site
          {
            OFFSET 0 0 6.296
          }
        }
      }
    }
  }
}
MOTION
Frames:	4
Frame Time:	0.0333333
-0.589176 90.543 0.090519 -16.5722 -5.95021 -55.4805 8.88178e-16 7.2397 -3.55271e-15 5.08122 11.4029 0.81821 -2.22045e-16 16.546 8.88178e-16 10.3868 24.6361 -0.165106 3.55271e-15 34.2149 7.10543e-15 -3.0665 33.5638 6.65847 -3.55271e-15 6.2923 -1.42109e-14 -8.70918 -24.3579 33.4661 4.0639 26.6115 -1.1234 -1.91001 4.08375 -21.478 14.1772 0 -1.42109e-14 -61.3815 -30.6583 -16.878 26.1234 1.42109e-14 0 -110.707 29.9302 -78.585 27.7188 -1.42109e-14 0 16.9901 -44.0541 -15.4459 2.2979 -0.4685 1.8313 37.184 70.9488 -65.3921 5.2953 2.84217e-14 0 -13.655 2.43914 4.2313 3.0181 0 0 40.5751 -4.26208 10.4488 9.3793 0.2991 2.5924 -15.7189 8.26171 2.10858 4.3461 0 0 -27.9755 -1.11862 5.59651 2.1666 -7.10543e-15 0 -30.2284 -1.57775 5.42757 9.4769 0.8376 0.2947 -15.5574 6.19102 1.80128 4.772 1.42109e-14 0 -44.2331 -4.15793 10.4286 2.8722 1.77636e-15 0 -38.4624 -3.11873 10.6456 8.6586 1.0176 -1.7016 -12.8095 4.05758 0.0154998 4.5461 -1.42109e-14 -7.10543e-15 -68.2419 -4.98727 7.35471 2.506 -7.10543e-15 0 -26.184 0.226373 12.1004 7.6901 0.6618 -3.9096 -1.69591 -16.7036 -0.578552 3.2119 0 0 -48.2122 -6.7538 15.0248 1.924 0 7.10543e-15 -25.7169 -1.9246 10.2066 -4.0677 26.6109 -1.1234 -12.2136 5.69151 7.71425 -14.1772 0 7.10543e-15 29.6864 22.9667 44.7847 -26.1234 0 7.10543e-15 26.1939 6.9133 129.613 -27.7188 -7.10543e-15 -1.42109e-14 -13.1187 -13.5387 -13.586 -2.2979 -0.4684 1.8313 -92.2025 72.3373 115.748 -5.2953 1.42109e-14 0 20.806 -0.164395 -7.80919 -3.0181 0 0 7.44353 -1.87405 -23.1505 -9.3793 0.2991 2.5924 -0.48323 -1.4043 -4.46204 -4.3461 1.33227e-15 0 11.3886 0.0664387 -2.10807 -2.1666 0 -2.84217e-14 35.2116 -1.89991 -5.61247 -9.4769 0.8376 0.2947 -5.7445 -0.492483 -10.3449 -4.772 7.99361e-15 0 99.6663 -15.9162 -13.533 -2.8722 -3.55271e-15 0 64.9769 -7.76865 -13.6636 -8.6586 1.0176 -1.7016 4.03538 -11.2401 -9.54013 -4.5461 7.10543e-15 0 113.305 -9.33455 -6.15039 -2.506 -7.10543e-15 0 71.4335 -4.5206 -7.1353 -7.6901 0.6618 -3.9096 -3.28621 -26.781 -8.59918 -3.2119 1.42109e-14 -1.42109e-14 88.1865 -18.3452 -18.9249 -1.924 0 0 68.3114 -11.8989 -18.9734 8.7379 -0.0029 0.0005 23.3766 -8.53502 25.3911 0 -46.6676 0 3.33355 36.2446 12.2532 1.77636e-15 -40.1476 0 -8.4862 -3.06081 6.43113 0 -8.8846 14.2294 0.0001 -2.48481e-17 -0 -8.7379 0.0029 -0.0005 -13.6041 1.04468 -33.0531 0 -46.6676 0 -8.57494 37.9562 1.79965 -3.55271e-15 -40.1476 -1.77636e-15 9.66613 -14.7389 -3.45831 -3.55271e-15 -8.8846 14.2294 7.95139e-16 1.98785e-16 -0 
-0.581105 90.5434 0.0838491 -16.5983 -5.96788 -55.4858 0 7.2397 0 5.07301 11.4762 0.850052 -2.22045e-16 16.546 8.88178e-16 10.3707 24.7854 -0.105787 -3.55271e-15 34.2149 -7.10543e-15 -3.06682 33.5638 6.65859 0 6.2923 0 -8.70918 -24.3579 33.4661 4.0639 26.6115 -1.1234 -2.08954 4.17892 -21.4887 14.1772 2.84217e-14 -1.42109e-14 -61.3187 -30.8819 -17.2684 26.1234 0 0 -110.706 29.8783 -78.5012 27.7188 2.84217e-14 1.42109e-14 17.22 -44.0717 -15.3026 2.2979 -0.4685 1.8313 37.184 70.9488 -65.3921 5.2953 0 0 -13.655 2.43914 4.2313 3.0181 -1.42109e-14 1.42109e-14 40.5751 -4.26208 10.4488 9.3793 0.2991 2.5924 -15.7189 8.26171 2.10858 4.3461 0 -7.10543e-15 -27.9755 -1.11862 5.59651 2.1666 7.10543e-15 7.10543e-15 -30.2284 -1.57775 5.42757 9.4769 0.8376 0.2947 -15.5574 6.19102 1.80128 4.772 1.42109e-14 0 -44.2331 -4.15793 10.4286 2.8722 -3.55271e-15 0 -38.4624 -3.11873 10.6456 8.6586 1.0176 -1.7016 -12.8095 4.05758 0.0154998 4.5461 0 -3.55271e-15 -68.2419 -4.98727 7.35471 2.506 7.10543e-15 0 -26.184 0.226373 12.1004 7.6901 0.6618 -3.9096 -1.69591 -16.7036 -0.578552 3.2119 0 0 -48.2122 -6.7538 15.0248 1.924 -3.55271e-15 7.10543e-15 -25.7169 -1.9246 10.2066 -4.0677 26.6109 -1.1234 -12.1606 5.86491 7.5777 -14.1772 -1.42109e-14 -7.10543e-15 29.6913 22.8047 44.9599 -26.1234 0 7.10543e-15 26.2826 6.97679 129.625 -27.7188 -7.10543e-15 0 -13.0205 -13.3048 -13.5899 -2.2979 -0.4684 1.8313 -92.2025 72.3373 115.748 -5.2953 0 -7.10543e-15 20.806 -0.164395 -7.80919 -3.0181 0 7.10543e-15 7.44353 -1.87405 -23.1505 -9.3793 0.2991 2.5924 -0.48323 -1.4043 -4.46204 -4.3461 1.77636e-15 2.84217e-14 11.3886 0.0664387 -2.10807 -2.1666 1.77636e-15 2.84217e-14 35.2116 -1.89991 -5.61247 -9.4769 0.8376 0.2947 -5.7445 -0.492483 -10.3449 -4.772 0 0 99.6663 -15.9162 -13.533 -2.8722 3.55271e-15 0 64.9769 -7.76865 -13.6636 -8.6586 1.0176 -1.7016 4.03538 -11.2401 -9.54013 -4.5461 -3.55271e-15 2.84217e-14 113.305 -9.33455 -6.15039 -2.506 0 0 71.4335 -4.5206 -7.1353 -7.6901 0.6618 -3.9096 -3.28621 -26.781 -8.59918 -3.2119 7.10543e-15 -1.42109e-14 88.1865 -18.3452 -18.9249 -1.924 0 -2.84217e-14 68.3114 -11.8989 -18.9734 8.7379 -0.0029 0.0005 23.3744 -8.50708 25.3848 0 -46.6676 7.10543e-15 3.33241 36.2341 12.2519 0 -40.1476 0 -8.47915 -3.05044 6.43228 0 -8.8846 14.2294 0.0001 -1.2424e-17 -7.95139e-16 -8.7379 0.0029 -0.0005 -13.6056 1.06811 -33.0519 3.55271e-15 -46.6676 0 -8.57459 37.9563 1.80661 3.55271e-15 -40.1476 1.77636e-15 9.65781 -14.7341 -3.4602 0 -8.8846 14.2294 1.10348e-32 -3.97569e-16 1.59028e-15 
-0.573514 90.5438 0.0775707 -16.6229 -5.98445 -55.4909 8.88178e-16 7.2397 0 5.06479 11.5476 0.881706 2.22045e-16 16.546 8.88178e-16 10.3544 24.931 -0.0465514 -3.55271e-15 34.2149 0 -3.06714 33.5638 6.65871 3.55271e-15 6.2923 -1.42109e-14 -8.70918 -24.3579 33.4661 4.0639 26.6115 -1.1234 -2.26847 4.27363 -21.4985 14.1772 0 1.42109e-14 -61.2593 -31.1014 -17.6555 26.1234 0 0 -110.703 29.8277 -78.4171 27.7188 -1.42109e-14 0 17.4477 -44.0908 -15.1606 2.2979 -0.4685 1.8313 37.184 70.9488 -65.3921 5.2953 1.42109e-14 0 -13.655 2.43914 4.2313 3.0181 0 1.42109e-14 40.5751 -4.26208 10.4488 9.3793 0.2991 2.5924 -15.7189 8.26171 2.10858 4.3461 -2.84217e-14 0 -27.9755 -1.11862 5.59651 2.1666 0 0 -30.2284 -1.57775 5.42757 9.4769 0.8376 0.2947 -15.5574 6.19102 1.80128 4.772 1.42109e-14 -7.10543e-15 -44.2331 -4.15793 10.4286 2.8722 1.77636e-15 -7.10543e-15 -38.4624 -3.11873 10.6456 8.6586 1.0176 -1.7016 -12.8095 4.05758 0.0154998 4.5461 0 -7.10543e-15 -68.2419 -4.98727 7.35471 2.506 1.42109e-14 0 -26.184 0.226373 12.1004 7.6901 0.6618 -3.9096 -1.69591 -16.7036 -0.578552 3.2119 -1.42109e-14 0 -48.2122 -6.7538 15.0248 1.924 -1.77636e-15 -1.42109e-14 -25.7169 -1.9246 10.2066 -4.0677 26.6109 -1.1234 -12.1084 6.03661 7.44215 -14.1772 -2.84217e-14 0 29.7008 22.6461 45.1307 -26.1234 1.42109e-14 7.10543e-15 26.3682 7.0413 129.638 -27.7188 -7.10543e-15 0 -12.923 -13.0739 -13.5941 -2.2979 -0.4684 1.8313 -92.2025 72.3373 115.748 -5.2953 0 0 20.806 -0.164395 -7.80919 -3.0181 5.68434e-14 3.55271e-15 7.44353 -1.87405 -23.1505 -9.3793 0.2991 2.5924 -0.48323 -1.4043 -4.46204 -4.3461 -2.66454e-15 0 11.3886 0.0664387 -2.10807 -2.1666 5.32907e-15 0 35.2116 -1.89991 -5.61247 -9.4769 0.8376 0.2947 -5.7445 -0.492483 -10.3449 -4.772 8.88178e-16 -2.84217e-14 99.6663 -15.9162 -13.533 -2.8722 -3.55271e-15 -2.84217e-14 64.9769 -7.76865 -13.6636 -8.6586 1.0176 -1.7016 4.03538 -11.2401 -9.54013 -4.5461 0 0 113.305 -9.33455 -6.15039 -2.506 0 0 71.4335 -4.5206 -7.1353 -7.6901 0.6618 -3.9096 -3.28621 -26.781 -8.59918 -3.2119 0 1.42109e-14 88.1865 -18.3452 -18.9249 -1.924 0 0 68.3114 -11.8989 -18.9734 8.7379 -0.0029 0.0005 23.3724 -8.48091 25.379 0 -46.6676 0 3.33135 36.2243 12.2507 -1.77636e-15 -40.1476 0 -8.47253 -3.04071 6.43336 -8.88178e-16 -8.8846 14.2294 0.0001 0 -0 -8.7379 0.0029 -0.0005 -13.6071 1.0901 -33.0508 0 -46.6676 -7.10543e-15 -8.57423 37.9563 1.81314 0 -40.1476 -1.77636e-15 9.64999 -14.7296 -3.46197 3.55271e-15 -8.8846 14.2294 0 1.98785e-16 -0 
-0.569855 90.544 0.074515 -16.6342 -5.99182 -55.4932 0 7.2397 0 5.05709 11.6041 0.911876 0 16.546 8.88178e-16 10.3378 25.0466 0.0112998 0 34.2149 7.10543e-15 -3.06754 33.5638 6.65891 3.55271e-15 6.2923 1.42109e-14 -8.70918 -24.3579 33.4661 4.0639 26.6115 -1.1234 -2.44383 4.36518 -21.5002 14.1772 0 0 -61.2009 -31.3026 -18.0028 26.1234 1.42109e-14 0 -110.69 29.7869 -78.3275 27.7188 0 1.42109e-14 17.6579 -44.1247 -15.0291 2.2979 -0.4685 1.8313 37.184 70.9488 -65.3921 5.2953 0 -1.42109e-14 -13.655 2.43914 4.2313 3.0181 -2.13163e-14 1.42109e-14 40.5751 -4.26208 10.4488 9.3793 0.2991 2.5924 -15.7189 8.26171 2.10858 4.3461 1.42109e-14 -7.10543e-15 -27.9755 -1.11862 5.59651 2.1666 7.10543e-15 7.10543e-15 -30.2284 -1.57775 5.42757 9.4769 0.8376 0.2947 -15.5574 6.19102 1.80128 4.772 0 -7.10543e-15 -44.2331 -4.15793 10.4286 2.8722 7.10543e-15 0 -38.4624 -3.11873 10.6456 8.6586 1.0176 -1.7016 -12.8095 4.05758 0.0154998 4.5461 0 0 -68.2419 -4.98727 7.35471 2.506 0 0 -26.184 0.226373 12.1004 7.6901 0.6618 -3.9096 -1.69591 -16.7036 -0.578552 3.2119 -1.42109e-14 0 -48.2122 -6.7538 15.0248 1.924 3.55271e-15 1.42109e-14 -25.7169 -1.9246 10.2066 -4.0677 26.6109 -1.1234 -12.0687 6.192 7.32264 -14.1772 0 0 29.7497 22.5061 45.2558 -26.1234 0 7.10543e-15 26.4217 7.11716 129.653 -27.7188 0 1.42109e-14 -12.8361 -12.8726 -13.6026 -2.2979 -0.4684 1.8313 -92.2025 72.3373 115.748 -5.2953 -1.42109e-14 0 20.806 -0.164395 -7.80919 -3.0181 0 0 7.44353 -1.87405 -23.1505 -9.3793 0.2991 2.5924 -0.48323 -1.4043 -4.46204 -4.3461 8.88178e-16 0 11.3886 0.0664387 -2.10807 -2.1666 -5.32907e-15 0 35.2116 -1.89991 -5.61247 -9.4769 0.8376 0.2947 -5.7445 -0.492483 -10.3449 -4.772 0 0 99.6663 -15.9162 -13.533 -2.8722 0 2.84217e-14 64.9769 -7.76865 -13.6636 -8.6586 1.0176 -1.7016 4.03538 -11.2401 -9.54013 -4.5461 0 2.84217e-14 113.305 -9.33455 -6.15039 -2.506 3.55271e-15 -2.84217e-14 71.4335 -4.5206 -7.1353 -7.6901 0.6618 -3.9096 -3.28621 -26.781 -8.59918 -3.2119 7.10543e-15 -1.42109e-14 88.1865 -18.3452 -18.9249 -1.924 3.55271e-15 2.84217e-14 68.3114 -11.8989 -18.9734 8.7379 -0.0029 0.0005 23.3718 -8.46922 25.3764 0 -46.6676 0 3.33091 36.22 12.2501 0 -40.1476 -3.55271e-15 -8.4694 -3.03618 6.43391 0 -8.8846 14.2294 0.0001 -2.48481e-17 -7.95139e-16 -8.7379 0.0029 -0.0005 -13.6074 1.10018 -33.0503 0 -46.6676 0 -8.5739 37.956 1.81611 -3.55271e-15 -40.1476 3.55271e-15 9.64622 -14.7272 -3.46285 0 -8.8846 14.2294 1.59028e-15 9.93923e-17 -0 
